/* XPM */
static char * app_xpm[] = {
"128 128 3 1",
" 	c None",
".	c #FFFFFF",
"+	c #00FC00",
"................................................................................................................................",
"................................................................................................................................",
"................................................................................................................................",
"................................................................................................................................",
"................................................................................................................................",
"................................................................................................................................",
"................................................................................................................................",
"................................................................................................................................",
"................................................................................................................................",
"................................................................................................................................",
"................................................................................................................................",
"................................................................................................................................",
"................................................................................................................................",
"................................................................................................................................",
"................................................................................................................................",
"................................................................................................................................",
"................................................................................................................................",
"................................................................................................................................",
"................................................................................................................................",
"................................................................................................................................",
"................................................................................................................................",
"................................................................................................................................",
"................................................................................................................................",
"................................................................................................................................",
"................................................................................................................................",
"................................................................................................................................",
"................................................................................................................................",
"................................................................++++++++++++....................................................",
"............................................................++++++++++++++++++++................................................",
".........................................................++++++++++++++++++++++++++.............................................",
".......................................................++++++++++++++++++++++++++++++...........................................",
"......................................................+++++++++++++++++++++++++++++++++.........................................",
"....................................................++++++++++++++++++++++++++++++++++++........................................",
"...................................................+++++++++++++++..........+++++++++++++.......................................",
"..................................................++++++++++++.................++++++++++.......................................",
".................................................+++++++++++.....................++++++++.......................................",
"................................................++++++++++.........................++++++.......................................",
"................................................+++++++++............................++++.......................................",
"...............................................+++++++++..............................+++.......................................",
"..............................................+++++++++................................++.......................................",
"..............................................++++++++..................................+.......................................",
".............................................+++++++++..........................................................................",
".............................................++++++++...........................................................................",
"............................................+++++++++...........................................................................",
"............................................++++++++............................................................................",
"............................................++++++++............................................................................",
"...........................................++++++++.............................................................................",
"...........................................++++++++.............................................................................",
"...........................................++++++++.............................................................................",
"...........................................++++++++.............................................................................",
"..........................................++++++++..............................................................................",
"..........................................++++++++..............................................................................",
"..........................................++++++++..............................................................................",
"..........................................++++++++..............................................................................",
"..........................................++++++++..............................................................................",
"..........................................++++++++..............................................................................",
"..........................................++++++++..............................................................................",
"..........................................++++++++..............................................................................",
"..........................................++++++++..............................................................................",
"..........................................++++++++..............................................................................",
"..........................................++++++++..............................................................................",
"..........................................++++++++..............................................................................",
"..........................................++++++++..............................................................................",
"..........................................++++++++..............................................................................",
"...........................................++++++++.............................................................................",
"...........................................++++++++.............................................................................",
"...........................................++++++++.............................................................................",
"...........................................++++++++.............................................................................",
"............................................++++++++............................................................................",
"............................................++++++++............................................................................",
"............................................+++++++++...........................................................................",
".............................................++++++++...........................................................................",
".............................................+++++++++..........................................................................",
"..............................................++++++++..................................+.......................................",
"..............................................+++++++++................................++.......................................",
"...............................................+++++++++..............................+++.......................................",
"................................................+++++++++............................++++.......................................",
"................................................++++++++++.........................++++++.......................................",
".................................................+++++++++++......................+++++++.......................................",
"..................................................++++++++++++.................++++++++++.......................................",
"...................................................++++++++++++++...........+++++++++++++.......................................",
"....................................................++++++++++++++++++++++++++++++++++++........................................",
"......................................................+++++++++++++++++++++++++++++++++.........................................",
".......................................................++++++++++++++++++++++++++++++...........................................",
".........................................................++++++++++++++++++++++++++.............................................",
"............................................................++++++++++++++++++++................................................",
"................................................................++++++++++++....................................................",
"................................................................................................................................",
"................................................................................................................................",
"................................................................................................................................",
"................................................................................................................................",
"................................................................................................................................",
"................................................................................................................................",
"................................................................................................................................",
"................................................................................................................................",
"................................................................................................................................",
"................................................................................................................................",
"................................................................................................................................",
"................................................................................................................................",
"................................................................................................................................",
"................................................................................................................................",
"................................................................................................................................",
"................................................................................................................................",
"................................................................................................................................",
"................................................................................................................................",
"................................................................................................................................",
"................................................................................................................................",
"................................................................................................................................",
"................................................................................................................................",
"................................................................................................................................",
"................................................................................................................................",
"................................................................................................................................",
"................................................................................................................................",
"................................................................................................................................",
"................................................................................................................................",
"................................................................................................................................",
"................................................................................................................................",
"................................................................................................................................",
"................................................................................................................................",
"................................................................................................................................",
"................................................................................................................................",
"................................................................................................................................",
"................................................................................................................................",
"................................................................................................................................",
"................................................................................................................................",
"................................................................................................................................",
"................................................................................................................................",
"................................................................................................................................"};
